<svg width="24" height="23" viewBox="0 0 24 23" fill="none" xmlns="http://www.w3.org/2000/svg">
<path d="M10.1443 6.35141C10.931 4.47212 11.3243 3.53247 12.0006 3.53247C12.6769 3.53247 13.0702 4.47212 13.8568 6.35141L13.8934 6.43892C14.3378 7.50062 14.56 8.03148 15.0129 8.35414C15.4657 8.6768 16.0602 8.72782 17.2491 8.82986L17.464 8.84831C19.4099 9.01531 20.3828 9.09881 20.5909 9.692C20.7991 10.2852 20.0766 10.9151 18.6316 12.1751L18.1493 12.5955C17.4178 13.2333 17.052 13.5522 16.8815 13.9702C16.8497 14.0482 16.8233 14.128 16.8024 14.2093C16.6903 14.645 16.7975 15.1076 17.0117 16.0329L17.0783 16.3209C17.472 18.0213 17.6688 18.8715 17.3252 19.2382C17.1967 19.3752 17.0298 19.4739 16.8444 19.5224C16.3482 19.6521 15.6437 19.102 14.2348 18.0018C13.3096 17.2793 12.847 16.9181 12.3159 16.8368C12.107 16.8048 11.8941 16.8048 11.6852 16.8368C11.1541 16.9181 10.6915 17.2793 9.76638 18.0018C8.35742 19.102 7.65295 19.6521 7.15675 19.5224C6.97133 19.4739 6.80442 19.3752 6.676 19.2382C6.33232 18.8715 6.52915 18.0213 6.92283 16.3209L6.9895 16.0329C7.20371 15.1076 7.31082 14.645 7.19876 14.2093C7.17786 14.128 7.15142 14.0482 7.11962 13.9702C6.94915 13.5522 6.5834 13.2333 5.85189 12.5955L5.36961 12.1751C3.92456 10.9151 3.20204 10.2852 3.41022 9.692C3.6184 9.09881 4.59131 9.01531 6.53712 8.84831L6.75206 8.82986C7.94097 8.72782 8.53543 8.6768 8.98828 8.35414C9.44113 8.03148 9.66333 7.50062 10.1077 6.43892L10.1443 6.35141Z" stroke="#F9E25E" stroke-width="2"/>
</svg>
