<svg width="22" height="20" viewBox="0 0 22 20" fill="none" xmlns="http://www.w3.org/2000/svg">
<path d="M7.17752 11.0916L6.75586 13.8166L9.77167 13.4333L17.9575 5.99998C18.128 5.84519 18.2632 5.66138 18.3555 5.45905C18.4477 5.25672 18.4952 5.03983 18.4952 4.82081C18.4952 4.60178 18.4477 4.3849 18.3555 4.18257C18.2632 3.98024 18.128 3.79644 17.9575 3.64165C17.7873 3.48669 17.585 3.36375 17.3625 3.27987C17.1399 3.196 16.9014 3.15283 16.6604 3.15283C16.4195 3.15283 16.181 3.196 15.9584 3.27987C15.7358 3.36375 15.5336 3.48669 15.3633 3.64165L7.17752 11.0916Z" stroke="#C2C2C2" stroke-width="2"/>
<path d="M7.91992 10.4082L10.5141 12.7665" stroke="#C2C2C2" stroke-width="2"/>
<path d="M14.6016 4.34155L17.1866 6.69155" stroke="#C2C2C2" stroke-width="2"/>
<path d="M18.8 10.4418V17.5335H3.125V3.28345H10.77" stroke="#C2C2C2" stroke-width="2"/>
</svg>
