<svg width="20" height="20" viewBox="0 0 20 20" fill="none" xmlns="http://www.w3.org/2000/svg">
<path d="M3.70954 11.5903L9.50339 17.033C9.64854 17.1694 9.72111 17.2376 9.80003 17.2721C9.92791 17.3282 10.0734 17.3282 10.2013 17.2721C10.2802 17.2376 10.3528 17.1694 10.4979 17.033L16.2918 11.5903C17.9219 10.059 18.1199 7.539 16.7488 5.77189L16.491 5.43961C14.8509 3.32565 11.5587 3.68018 10.4062 6.09487C10.2434 6.43596 9.75789 6.43596 9.59509 6.09487C8.44263 3.68017 5.15042 3.32565 3.51027 5.43962L3.25247 5.77189C1.88144 7.539 2.0794 10.059 3.70954 11.5903Z" stroke="#9C9C9C" stroke-width="2"/>
</svg>
